<?xml version="1.0" encoding="UTF-8" standalone="no"?>
<svg
   xmlns:osb="http://www.openswatchbook.org/uri/2009/osb"
   xmlns:dc="http://purl.org/dc/elements/1.1/"
   xmlns:cc="http://creativecommons.org/ns#"
   xmlns:rdf="http://www.w3.org/1999/02/22-rdf-syntax-ns#"
   xmlns:svg="http://www.w3.org/2000/svg"
   xmlns="http://www.w3.org/2000/svg"
   xmlns:sodipodi="http://sodipodi.sourceforge.net/DTD/sodipodi-0.dtd"
   xmlns:inkscape="http://www.inkscape.org/namespaces/inkscape"
   version="1.0"
   x="0px"
   y="0px"
   width="96px"
   height="96px"
   viewBox="0 0 96 96"
   enable-background="new 0 0 96 96"
   xml:space="preserve"
   id="svg2"
   inkscape:version="0.48.3.1 r9886"
   sodipodi:docname="ic_pine.svg"
   inkscape:export-filename="/tmp/test32.png"
   inkscape:export-xdpi="30"
   inkscape:export-ydpi="30"><metadata
   id="metadata11"><rdf:RDF><cc:Work
       rdf:about=""><dc:format>image/svg+xml</dc:format><dc:type
         rdf:resource="http://purl.org/dc/dcmitype/StillImage" /><dc:title></dc:title></cc:Work></rdf:RDF></metadata><defs
   id="defs9"><linearGradient
   id="linearGradient5201"
   osb:paint="solid"><stop
     style="stop-color:#000000;stop-opacity:1;"
     offset="0"
     id="stop5203" /></linearGradient>
	
</defs><sodipodi:namedview
   pagecolor="#ffffff"
   bordercolor="#666666"
   borderopacity="1"
   objecttolerance="10"
   gridtolerance="10"
   guidetolerance="10"
   inkscape:pageopacity="0"
   inkscape:pageshadow="2"
   inkscape:window-width="1920"
   inkscape:window-height="1152"
   id="namedview7"
   showgrid="false"
   inkscape:zoom="1.03"
   inkscape:cx="48"
   inkscape:cy="48"
   inkscape:window-x="-2"
   inkscape:window-y="-3"
   inkscape:window-maximized="1"
   inkscape:current-layer="svg2" />
<path
   style="fill:#f7901e;display:inline;stroke:#000000;stroke-opacity:1;fill-rule:nonzero;fill-opacity:1;stroke-linejoin:round;stroke-width:2;stroke-miterlimit:4;stroke-dasharray:none;stroke-linecap:butt"
   inkscape:connector-curvature="0"
   id="path5"
   d="m 34.795,58.398 c -7.098,-7.576 -10.75,-15.39 -8.219,-17.92 l 2.117,-2.124 c 1.99,-1.984 7.233,-0.156 13.051,4.146 L 54.889,29.36 c -3.295,-4.373 -4.854,-8.014 -3.653,-9.214 l 2.681,-2.685 c 1.746,-1.742 8.674,2.351 15.471,9.149 6.799,6.799 10.896,13.727 9.15,15.473 l -2.68,2.683 c -1.205,1.197 -4.847,-0.359 -9.215,-3.655 l -13.141,13.14 c 4.304,5.825 6.131,11.065 4.146,13.052 l -2.122,2.122 C 52.991,71.957 45.176,68.304 37.6,61.208 L 30.015,68.792 17.998,78.939 17.06,78.005 27.208,65.982 34.795,58.398 z"
   display="inline" />
</svg>