<?xml version="1.0" encoding="UTF-8" standalone="no"?>
<!-- Created with Sodipodi ("http://www.sodipodi.com/") -->

<svg
   xmlns:dc="http://purl.org/dc/elements/1.1/"
   xmlns:cc="http://creativecommons.org/ns#"
   xmlns:rdf="http://www.w3.org/1999/02/22-rdf-syntax-ns#"
   xmlns:svg="http://www.w3.org/2000/svg"
   xmlns="http://www.w3.org/2000/svg"
   xmlns:xlink="http://www.w3.org/1999/xlink"
   xmlns:sodipodi="http://sodipodi.sourceforge.net/DTD/sodipodi-0.dtd"
   xmlns:inkscape="http://www.inkscape.org/namespaces/inkscape"
   height="151.99001"
   id="svg548"
   inkscape:version="0.48.3.1 r9886"
   sodipodi:docname="writing_log_success.svg"
   sodipodi:version="0.32"
   width="151.99001"
   version="1.1"
   inkscape:export-filename="/home/nkg/android/geokrety/resources/writing_log_19.png"
   inkscape:export-xdpi="11.25074"
   inkscape:export-ydpi="11.25074">
  <metadata
     id="metadata6182">
    <rdf:RDF>
      <cc:Work
         rdf:about="">
        <dc:title></dc:title>
        <dc:description />
        <dc:subject>
          <rdf:Bag>
            <rdf:li>hash</rdf:li>
            <rdf:li />
            <rdf:li>education</rdf:li>
          </rdf:Bag>
        </dc:subject>
        <dc:publisher>
          <cc:Agent
             rdf:about="http://www.openclipart.org">
            <dc:title>Nicu Buculei</dc:title>
          </cc:Agent>
        </dc:publisher>
        <dc:creator>
          <cc:Agent>
            <dc:title>Nicu Buculei</dc:title>
          </cc:Agent>
        </dc:creator>
        <dc:rights>
          <cc:Agent>
            <dc:title>Nicu Buculei</dc:title>
          </cc:Agent>
        </dc:rights>
        <dc:date />
        <dc:format>image/svg+xml</dc:format>
        <dc:type
           rdf:resource="http://purl.org/dc/dcmitype/StillImage" />
        <cc:license
           rdf:resource="http://web.resource.org/cc/PublicDomain" />
        <dc:language>en</dc:language>
      </cc:Work>
      <cc:License
         rdf:about="http://web.resource.org/cc/PublicDomain">
        <cc:permits
           rdf:resource="http://web.resource.org/cc/Reproduction" />
        <cc:permits
           rdf:resource="http://web.resource.org/cc/Distribution" />
        <cc:permits
           rdf:resource="http://web.resource.org/cc/DerivativeWorks" />
      </cc:License>
    </rdf:RDF>
  </metadata>
  <defs
     id="defs550">
    <linearGradient
       id="linearGradient562">
      <stop
         id="stop563"
         offset="0.000000"
         style="stop-color:#de9500;stop-opacity:1;" />
      <stop
         id="stop564"
         offset="1.000000"
         style="stop-color:#ffff0f;stop-opacity:1;" />
    </linearGradient>
    <linearGradient
       id="linearGradient558">
      <stop
         id="stop559"
         offset="0"
         style="stop-color:#000;stop-opacity:1;" />
      <stop
         id="stop560"
         offset="1"
         style="stop-color:#fff;stop-opacity:1;" />
    </linearGradient>
    <linearGradient
       gradientUnits="userSpaceOnUse"
       id="linearGradient561"
       spreadMethod="reflect"
       x1="343.83105"
       x2="306.405"
       xlink:href="#linearGradient562"
       y1="89.582809"
       y2="67.144363"
       gradientTransform="scale(1.0646869,0.93924326)" />
    <linearGradient
       id="linearGradient562-8-42">
      <stop
         id="stop563-7-0"
         offset="0.000000"
         style="stop-color:#de9500;stop-opacity:1;" />
      <stop
         id="stop564-1-2"
         offset="1.000000"
         style="stop-color:#ffff0f;stop-opacity:1;" />
    </linearGradient>
    <linearGradient
       id="linearGradient562-8">
      <stop
         id="stop563-7"
         offset="0.000000"
         style="stop-color:#de9500;stop-opacity:1;" />
      <stop
         id="stop564-1"
         offset="1.000000"
         style="stop-color:#ffff0f;stop-opacity:1;" />
    </linearGradient>
    <linearGradient
       id="linearGradient562-8-4">
      <stop
         id="stop563-7-9"
         offset="0.000000"
         style="stop-color:#de9500;stop-opacity:1;" />
      <stop
         id="stop564-1-8"
         offset="1.000000"
         style="stop-color:#ffff0f;stop-opacity:1;" />
    </linearGradient>
    <linearGradient
       x1="127.8125"
       y1="31.59375"
       x2="127.8125"
       y2="118.62509"
       id="linearGradient4614"
       xlink:href="#linearGradient15536"
       gradientUnits="userSpaceOnUse" />
    <linearGradient
       id="linearGradient15536">
      <stop
         style="stop-color:white;stop-opacity:1"
         offset="0"
         id="stop15538" />
      <stop
         style="stop-color:white;stop-opacity:0.59090906"
         offset="1"
         id="stop15540" />
    </linearGradient>
    <linearGradient
       x1="127.8125"
       y1="31.59375"
       x2="127.8125"
       y2="118.62509"
       id="linearGradient3173"
       xlink:href="#linearGradient15536"
       gradientUnits="userSpaceOnUse" />
    <linearGradient
       id="linearGradient3175">
      <stop
         style="stop-color:white;stop-opacity:1"
         offset="0"
         id="stop3177" />
      <stop
         style="stop-color:white;stop-opacity:0.59090906"
         offset="1"
         id="stop3179" />
    </linearGradient>
    <linearGradient
       x1="162.12244"
       y1="228.19299"
       x2="101.21178"
       y2="40.729256"
       id="linearGradient7076"
       xlink:href="#linearGradient7070"
       gradientUnits="userSpaceOnUse" />
    <linearGradient
       id="linearGradient7070">
      <stop
         style="stop-color:white;stop-opacity:0.94897962"
         offset="0"
         id="stop7072" />
      <stop
         style="stop-color:white;stop-opacity:0.74489796"
         offset="1"
         id="stop7074" />
    </linearGradient>
    <linearGradient
       x1="168.97348"
       y1="226.79765"
       x2="94.360741"
       y2="42.124634"
       id="linearGradient4159"
       xlink:href="#linearGradient4153"
       gradientUnits="userSpaceOnUse" />
    <linearGradient
       id="linearGradient4153">
      <stop
         style="stop-color:#2a4fe4;stop-opacity:1"
         offset="0"
         id="stop4155" />
      <stop
         style="stop-color:#447bfa;stop-opacity:1"
         offset="0.2"
         id="stop7080" />
      <stop
         style="stop-color:#69a3ff;stop-opacity:1"
         offset="0.625"
         id="stop7084" />
      <stop
         style="stop-color:#89beff;stop-opacity:1"
         offset="0.75"
         id="stop7082" />
      <stop
         style="stop-color:#80beff;stop-opacity:1"
         offset="1"
         id="stop4157" />
    </linearGradient>
    <linearGradient
       x1="150.76942"
       y1="72.579872"
       x2="162.2932"
       y2="131.31783"
       id="linearGradient2818"
       xlink:href="#linearGradient2820"
       gradientUnits="userSpaceOnUse" />
    <linearGradient
       id="linearGradient2820">
      <stop
         style="stop-color:black;stop-opacity:0.3137255"
         offset="0"
         id="stop2822" />
      <stop
         style="stop-color:black;stop-opacity:0.19607843"
         offset="0.92982459"
         id="stop2826" />
      <stop
         style="stop-color:black;stop-opacity:0"
         offset="1"
         id="stop2824" />
    </linearGradient>
    <radialGradient
       cx="130.61937"
       cy="132.01637"
       r="115.95089"
       fx="130.61937"
       fy="132.01637"
       id="radialGradient3721"
       xlink:href="#linearGradient2820"
       gradientUnits="userSpaceOnUse" />
    <linearGradient
       id="linearGradient3198">
      <stop
         style="stop-color:black;stop-opacity:0.3137255"
         offset="0"
         id="stop3200" />
      <stop
         style="stop-color:black;stop-opacity:0.19607843"
         offset="0.92982459"
         id="stop3202" />
      <stop
         style="stop-color:black;stop-opacity:0"
         offset="1"
         id="stop3204" />
    </linearGradient>
    <radialGradient
       r="115.95089"
       fy="132.01637"
       fx="130.61937"
       cy="132.01637"
       cx="130.61937"
       gradientUnits="userSpaceOnUse"
       id="radialGradient3215"
       xlink:href="#linearGradient2820"
       inkscape:collect="always" />
    <linearGradient
       y2="118.62509"
       x2="127.8125"
       y1="31.59375"
       x1="127.8125"
       gradientUnits="userSpaceOnUse"
       id="linearGradient3217"
       xlink:href="#linearGradient15536"
       inkscape:collect="always" />
  </defs>
  <sodipodi:namedview
     id="base"
     inkscape:cx="69.114021"
     inkscape:cy="75.995953"
     inkscape:window-height="1152"
     inkscape:window-width="1920"
     inkscape:window-x="-2"
     inkscape:window-y="-3"
     inkscape:zoom="3.1909728"
     showgrid="false"
     inkscape:window-maximized="1"
     inkscape:current-layer="svg548"
     fit-margin-top="0"
     fit-margin-left="0"
     fit-margin-right="0"
     fit-margin-bottom="0" />
  <g
     id="g7012"
     transform="matrix(0.3260355,0,0,0.3260355,0.194281,-1.8219239)">
    <path
       d="m 66.71343,11.430225 c -11.6412,149.065095 35.262,212.687095 -1.6959,451.942095 0,0 333.2339,3.392 332.3859,3.392 43.456,-250 -25.204,-331.333 2.657,-396.827495 -53.798,-0.7344 -67.099,-59.3545 -67.099,-59.3545 l -266.248,0.8479 z"
       id="path588"
       sodipodi:nodetypes="cccccc"
       style="fill:#ffffff;fill-rule:evenodd;stroke:#000000;stroke-width:10;stroke-linejoin:round;stroke-dasharray:none"
       inkscape:connector-curvature="0" />
    <path
       d="m 332.96193,11.4302 -0.849,59.3546 68.681,0 c 3.392,-5.0876 -64.441,-57.6587 -67.832,-59.3546 z"
       id="path589"
       sodipodi:nodetypes="cccc"
       style="fill:#eeebff;fill-rule:evenodd;stroke:#000000;stroke-width:10;stroke-linejoin:round;stroke-dasharray:none"
       inkscape:connector-curvature="0" />
  </g>
  <g
     transform="matrix(0.43283904,0,0,0.43283904,23.991515,21.818656)"
     style="fill:url(#linearGradient2818);fill-opacity:1;display:inline"
     id="layer2">
    <path
       inkscape:connector-curvature="0"
       d="m 246.57026,132.01637 c 0,64.03791 -51.91298,115.95089 -115.95089,115.95089 -64.037909,0 -115.950891,-51.91298 -115.95089,-115.95089 -1e-6,-64.037909 51.912981,-115.950891 115.95089,-115.950891 64.03791,0 115.95089,51.912982 115.95089,115.950891 l 0,0 z"
       transform="matrix(0.995962,0,0,0.995962,-0.171109,-0.165469)"
       style="fill:url(#radialGradient3215);fill-opacity:1;stroke:none"
       id="path12053" />
  </g>
  <g
     transform="matrix(0.43283904,0,0,0.43283904,23.991515,21.818656)"
     style="display:inline"
     id="layer4">
    <path
       inkscape:connector-curvature="0"
       d="m 230.50477,134.46112 c 0,54.58653 -44.25113,98.83765 -98.83765,98.83765 -54.586535,1e-5 -98.83766,-44.25112 -98.83766,-98.83765 0,-54.58653 44.251125,-98.837655 98.83765,-98.837655 54.58653,0 98.83766,44.251125 98.83766,98.837655 l 0,0 z"
       transform="matrix(1.082583,0,0,1.082583,-14.54063,-17.56537)"
       style="fill:#3a73ef;fill-opacity:1;stroke:none"
       id="path2175" />
    <path
       inkscape:connector-curvature="0"
       d="m 230.50477,134.46112 c 0,54.58653 -44.25113,98.83765 -98.83765,98.83765 -54.586535,1e-5 -98.83766,-44.25112 -98.83766,-98.83765 0,-54.58653 44.251125,-98.837655 98.83765,-98.837655 54.58653,0 98.83766,44.251125 98.83766,98.837655 l 0,0 z"
       transform="matrix(1.042113,0,0,1.042113,-9.212006,-12.12368)"
       style="fill:url(#linearGradient7076);fill-opacity:1;stroke:none"
       id="path13592" />
    <path
       inkscape:connector-curvature="0"
       d="m 230.50477,134.46112 c 0,54.58653 -44.25113,98.83765 -98.83765,98.83765 -54.586535,1e-5 -98.83766,-44.25112 -98.83766,-98.83765 0,-54.58653 44.251125,-98.837655 98.83765,-98.837655 54.58653,0 98.83766,44.251125 98.83766,98.837655 l 0,0 z"
       transform="matrix(0.951055,0,0,0.951055,2.777393,0.12014)"
       style="fill:url(#linearGradient4159);fill-opacity:1;stroke:none"
       id="path14565" />
  </g>
  <g
     transform="matrix(0.43283904,0,0,0.43283904,23.991515,21.818656)"
     style="fill:url(#linearGradient4614);fill-opacity:1;display:inline"
     id="layer7">
    <path
       inkscape:connector-curvature="0"
       d="m 128,31.59375 c -41.128659,0 -76.25164,25.807965 -90.09375,62.09375 18.826115,16.67162 58.339425,24.68447 90.125,24.9375 0.0416,-3.3e-4 -0.0101,3.3e-4 0.0312,0 32.03519,-0.25526 71.06018,-8.94906 89.65625,-25.9375 C 203.61988,56.922098 168.75455,31.593751 128,31.59375 z"
       style="opacity:0.45;fill:url(#linearGradient3217);fill-opacity:1;fill-rule:evenodd;stroke:none"
       id="path18502" />
  </g>
  <path
     inkscape:connector-curvature="0"
     style="font-size:165.61247253px;font-style:normal;font-weight:bold;fill:#ffffff;fill-opacity:1;stroke:none;font-family:Bitstream Vera Sans"
     d="m 73.460373,99.087103 c -1.3e-5,-1.30672 0.449175,-2.41511 1.347567,-3.32516 0.898362,-0.910044 2.012584,-1.365064 3.342666,-1.365074 1.28338,1e-5 2.380099,0.45503 3.290165,1.365074 0.910022,0.91005 1.365044,2.01844 1.365066,3.32516 -2.2e-5,1.283397 -0.455044,2.380117 -1.365066,3.290167 -0.910066,0.91004 -2.006785,1.36506 -3.290165,1.36506 -1.330082,0 -2.444304,-0.44919 -3.342666,-1.34756 -0.898392,-0.89838 -1.34758,-2.00094 -1.347567,-3.307667 l 0,0 z M 65.724992,52.779812 c 2.473448,-1.09667 4.824396,-1.913377 7.052846,-2.450122 2.228433,-0.53664 4.322699,-0.804986 6.282816,-0.80504 5.180231,5.4e-5 9.269594,1.248448 12.268104,3.745186 2.998449,2.496833 4.497687,5.868663 4.497721,10.115503 -3.4e-5,4.34025 -1.289263,7.88708 -3.867689,10.64052 -2.578491,2.7535 -6.469511,4.72526 -11.673076,5.91529 l 0,8.89044 -4.305218,0 0,-11.48056 c 4.130191,-1.00336 7.239507,-2.68344 9.327964,-5.04025 2.08841,-2.35675 3.13263,-5.35523 3.132656,-8.99545 -2.6e-5,-3.19678 -0.851737,-5.7169 -2.555127,-7.56037 -1.703442,-1.84338 -4.025221,-2.765088 -6.965346,-2.765137 -2.660147,4.9e-5 -4.836085,0.764257 -6.527824,2.292617 -1.69176,1.52845 -2.782644,3.72772 -3.272661,6.59782 l -3.395166,0 0,-9.100447 z"
     id="text9068" />
</svg>
